<?xml version="1.0" standalone="no"?>
<!DOCTYPE svg PUBLIC "-//W3C//DTD SVG 20010904//EN"
 "http://www.w3.org/TR/2001/REC-SVG-20010904/DTD/svg10.dtd">
<svg version="1.0" xmlns="http://www.w3.org/2000/svg"
 width="1098.000000pt" height="1098.000000pt" viewBox="0 0 1098.000000 1098.000000"
 preserveAspectRatio="xMidYMid meet">
<metadata>
Created by potrace 1.14, written by Peter Selinger 2001-2017
</metadata>
<g transform="translate(0.000000,1098.000000) scale(0.100000,-0.100000)"
fill="#000000" stroke="none">
<path d="M1054 10943 c5 -9 -3 -13 -28 -14 -20 -1 -39 -2 -43 -3 -12 -3 -136
-20 -153 -21 -8 -1 -28 -7 -43 -13 -16 -7 -34 -12 -40 -12 -7 0 -25 -7 -41
-15 -16 -9 -36 -13 -43 -10 -8 2 -11 0 -8 -5 5 -9 -1 -12 -21 -9 -4 0 -10 -3
-13 -8 -8 -12 -94 -61 -103 -59 -4 0 -13 -8 -21 -18 -9 -12 -19 -16 -27 -11
-8 5 -11 4 -7 -2 8 -12 -57 -66 -67 -56 -3 4 -6 -1 -6 -10 0 -9 -4 -17 -8 -17
-5 0 -30 -20 -55 -45 -26 -25 -44 -45 -40 -45 4 0 -7 -13 -25 -29 -17 -17 -32
-33 -32 -36 0 -13 -28 -34 -35 -27 -5 4 -5 1 -1 -5 9 -16 -12 -56 -24 -48 -6
3 -7 0 -4 -8 3 -8 -2 -20 -11 -27 -8 -7 -15 -21 -15 -31 0 -11 -3 -19 -8 -19
-8 0 -38 -61 -34 -72 1 -5 -3 -8 -10 -8 -6 0 -9 -3 -6 -6 3 -3 -3 -30 -13 -59
-10 -30 -19 -62 -19 -71 0 -10 -8 -26 -18 -37 -9 -11 -11 -17 -4 -13 9 5 11
-2 6 -31 -3 -21 -10 -40 -16 -42 -6 -2 -4 -7 3 -12 9 -6 10 -12 4 -16 -6 -5
-10 -29 -10 -55 1 -27 -2 -48 -7 -48 -12 0 -9 -8768 3 -8776 8 -4 7 -9 -2 -15
-11 -7 -11 -9 -1 -9 8 0 11 -11 9 -35 -3 -19 0 -35 4 -35 5 0 9 -9 9 -21 0
-12 -4 -17 -11 -13 -6 3 -4 -4 4 -17 8 -13 14 -36 13 -51 -1 -14 2 -24 6 -22
7 5 12 -22 12 -68 0 -9 4 -14 9 -11 6 4 8 0 4 -10 -3 -9 -1 -22 6 -29 14 -16
20 -34 21 -65 1 -12 5 -21 11 -20 5 1 10 -5 10 -13 0 -8 6 -20 14 -26 8 -7 11
-16 6 -24 -6 -9 -4 -11 5 -5 10 6 12 4 7 -9 -4 -11 -3 -15 4 -11 6 4 13 -2 16
-14 3 -12 10 -21 15 -21 6 0 8 -9 5 -19 -3 -15 -1 -18 11 -14 10 4 13 2 8 -5
-4 -7 0 -15 9 -18 11 -5 15 -14 11 -27 -3 -14 -2 -17 6 -9 13 13 53 -32 43
-48 -4 -6 1 -7 12 -3 10 3 15 3 11 -2 -4 -4 6 -20 22 -35 16 -15 26 -30 22
-34 -3 -4 1 -4 11 0 19 7 24 -11 4 -20 -6 -3 -3 -4 8 -3 12 1 19 -3 17 -11 -1
-8 2 -11 8 -7 13 8 42 -14 34 -26 -3 -5 1 -7 8 -4 7 3 25 -6 40 -20 15 -14 32
-25 37 -25 6 0 14 -7 19 -16 5 -9 12 -15 15 -15 18 2 25 0 45 -19 12 -11 24
-20 27 -20 22 1 25 -2 19 -12 -4 -7 -4 -10 0 -6 10 8 128 -31 122 -41 -3 -4 8
-5 25 -3 16 2 29 0 29 -5 0 -5 19 -9 42 -10 23 -1 45 -8 49 -15 7 -10 9 -10 9
-1 0 9 7 10 22 4 13 -4 46 -9 73 -10 75 -4 89 -6 101 -14 18 -10 8706 -3 8728
7 15 8 18 6 11 -5 -7 -11 -6 -12 6 -3 8 7 43 15 79 18 84 9 202 33 254 53 255
96 469 283 599 523 47 87 97 237 100 298 0 6 3 12 6 12 4 0 6 12 5 28 0 15 4
30 10 34 7 5 7 8 -2 8 -7 0 -10 5 -6 11 3 6 9 29 12 52 3 23 7 2008 9 4412 2
3446 0 4371 -10 4377 -9 6 -9 8 2 8 10 0 11 4 3 13 -6 6 -9 31 -9 54 1 22 -1
39 -4 37 -3 -2 -6 11 -7 29 -1 18 -4 41 -7 52 -2 11 -9 40 -16 65 -6 25 -12
52 -14 61 -2 9 -18 51 -35 93 -60 144 -196 320 -336 434 -29 23 -54 42 -57 42
-3 0 -27 14 -52 31 -66 44 -189 96 -275 115 -41 9 -82 19 -90 21 -18 6 -107
15 -135 15 -10 -1 -25 4 -32 10 -7 6 -13 6 -13 1 0 -11 -36 -11 -46 0 -9 9
-8563 7 -8636 -2 -37 -5 -59 -3 -62 3 -2 6 -5 5 -5 -3 -1 -11 -4 -11 -18 0
-11 10 -14 10 -9 2z"/>
</g>
</svg>
